<svg xmlns="http://www.w3.org/2000/svg" width="16" height="20" viewBox="0 0 16 20">
    <g fill="#FFF" fill-rule="nonzero">
        <path d="M2 16.442H.39a.316.316 0 0 1-.312-.312V.312C.078.13.234 0 .39 0h11.792c.182 0 .312.156.312.312V2h-.624V.623H.727v15.17H2v.649z"/>
        <path d="M15.156 19.442H3.39a.316.316 0 0 1-.312-.312V3.312c0-.182.156-.312.312-.312h11.792c.182 0 .312.156.312.312V19.13a.316.316 0 0 1-.312.312.335.335 0 0 1-.312-.312V3.623H3.727v15.17h11.455c.182 0 .312.155.312.31 0 .157-.156.339-.338.339z"/>
        <path d="M12.662 5.753H5.727a.316.316 0 0 1-.311-.311c0-.156.155-.312.311-.312h6.935c.182 0 .312.156.312.312 0 .155-.13.311-.312.311zM12.662 7.623H5.727a.316.316 0 0 1-.311-.311c0-.156.155-.312.311-.312h6.935c.182 0 .312.156.312.312s-.13.311-.312.311zM12.662 9.52H5.727a.316.316 0 0 1-.311-.312c0-.156.155-.312.311-.312h6.935c.182 0 .312.156.312.312s-.13.311-.312.311zM12.143 11.39H5.727a.316.316 0 0 1-.311-.312c0-.156.155-.312.311-.312h6.416c.182 0 .312.156.312.312s-.13.312-.312.312zM10.766 13.286H5.727a.316.316 0 0 1-.311-.312c0-.156.155-.312.311-.312h5.04c.181 0 .31.156.31.312s-.129.312-.31.312zM12.542 15.156H5.727a.316.316 0 0 1-.311-.312c0-.156.155-.312.311-.312h6.815c.182 0 .312.156.312.312s-.13.312-.312.312zM6.896 17.052H5.727a.316.316 0 0 1-.311-.312c0-.156.155-.311.311-.311h1.17c.18 0 .31.155.31.311s-.13.312-.31.312z"/>
    </g>
</svg>
