<svg xmlns="http://www.w3.org/2000/svg" width="21" height="22" viewBox="0 0 21 22">
    <path fill="#1B1B1B" fill-rule="evenodd" stroke="#1B1B1B" stroke-width=".1" d="M14.339 7.291a.467.467 0 0 1 .115.341l-.694 9.524a.485.485 0 0 1-.486.443l-.036-.002a.49.49 0 0 1-.339-.167.47.47 0 0 1-.114-.341l.693-9.524a.485.485 0 0 1 .487-.443c.168.011.288.07.374.169zm-6.817.273l.693 9.525a.483.483 0 0 1-.452.508l-.036.002a.486.486 0 0 1-.488-.443l-.693-9.524a.467.467 0 0 1 .115-.341.486.486 0 0 1 .338-.167h.003c.289 0 .502.193.52.44zm3.467.034v9.525a.482.482 0 0 1-.489.475.483.483 0 0 1-.489-.475V7.598c0-.262.22-.475.489-.475.27 0 .489.213.489.475zm5.368 11.639a.898.898 0 0 1-.894.811H5.537a.886.886 0 0 1-.894-.811L3.406 4.673h14.188l-1.237 14.564zm-9.528-16.4c0-.488.403-.885.898-.885h5.546c.494 0 .897.397.897.885v.884H6.829v-.884zm12.682.884H15.148v-.884c0-1.013-.841-1.837-1.875-1.837H7.727c-1.033 0-1.874.824-1.874 1.837v.884H1.489A.483.483 0 0 0 1 4.197c0 .262.22.476.489.476h.936l1.243 14.642C3.748 20.26 4.57 21 5.537 21h9.926c.968 0 1.789-.74 1.869-1.685l1.244-14.642h.935c.27 0 .489-.214.489-.476a.483.483 0 0 0-.489-.476z"/>
</svg>
