<svg xmlns="http://www.w3.org/2000/svg" xmlns:xlink="http://www.w3.org/1999/xlink" width="169" height="40" viewBox="0 0 169 40">
    <defs>
        <path id="a" d="M.033.083h163.018v39.832H.033z"/>
    </defs>
    <g fill="none" fill-rule="evenodd">
        <g transform="translate(5 .002)">
            <mask id="b" fill="#fff">
                <use xlink:href="#a"/>
            </mask>
            <path fill="#F9A31C" d="M72.775 12.17a2.49 2.49 0 0 1 2.485 2.494v22.18a2.49 2.49 0 0 1-2.485 2.495 2.49 2.49 0 0 1-2.485-2.494V14.664c0-1.363 1.137-2.495 2.485-2.495M22.87 39.894l-.078-.001v-.017H8.895a2.421 2.421 0 0 1-2.417-2.426 2.421 2.421 0 0 1 2.417-2.426h13.896c.152 0 .3.015.443.042 7.7-.198 13.883-6.647 13.883-14.574 0-8.052-6.379-14.58-14.248-14.58-7.485 0-13.62 5.908-14.2 13.414a2.421 2.421 0 0 1-2.391 2.759H2.449A2.421 2.421 0 0 1 .033 19.66a2.421 2.421 0 0 1 2.417-2.426h1.365C5.359 8.07 13.3 1.09 22.869 1.09c10.675 0 19.33 8.686 19.33 19.402 0 10.715-8.655 19.402-19.33 19.402m41.5-34.166c-2.755-.972-5.26-.872-6.872.275-1.086.773-1.66 1.959-1.66 3.432v3.046h5.29a2.352 2.352 0 0 1 2.347 2.356 2.351 2.351 0 0 1-2.347 2.356h-5.29v19.652a2.49 2.49 0 0 1-2.485 2.494 2.49 2.49 0 0 1-2.485-2.494V17.193h-2.45a2.351 2.351 0 0 1-2.346-2.356 2.352 2.352 0 0 1 2.347-2.356h2.449V9.435c0-1.54.33-2.977.98-4.273a8.735 8.735 0 0 1 2.776-3.23c2.946-2.094 7.098-2.426 11.394-.91a2.497 2.497 0 0 1 1.52 3.18 2.483 2.483 0 0 1-3.168 1.526m41.398 33.611a2.49 2.49 0 0 1-2.485-2.494V24.898c0-4.73-3.707-8.564-8.28-8.564-4.573 0-8.28 3.834-8.28 8.564v11.947a2.49 2.49 0 0 1-2.485 2.494 2.49 2.49 0 0 1-2.486-2.494V14.67c0-1.362 1.137-2.495 2.486-2.495a2.49 2.49 0 0 1 2.485 2.495v1.602a12.001 12.001 0 0 1 9.47-4.65c6.633-.012 12.06 5.529 12.06 12.187v13.035a2.49 2.49 0 0 1-2.485 2.494m20.32.555c-2.047 0-3.924-.547-5.44-1.626-2.112-1.502-3.323-3.917-3.323-6.626V17.166h-2.295a2.352 2.352 0 0 1-2.347-2.356 2.352 2.352 0 0 1 2.347-2.356h2.295V6.356a2.49 2.49 0 0 1 2.486-2.495 2.49 2.49 0 0 1 2.485 2.495v6.098h5.554a2.352 2.352 0 0 1 2.347 2.356 2.352 2.352 0 0 1-2.347 2.356h-5.554v14.476c0 1.102.423 1.985 1.225 2.555 1.247.887 3.217.952 5.406.18a2.482 2.482 0 0 1 3.168 1.526 2.497 2.497 0 0 1-1.52 3.18c-1.536.542-3.053.81-4.486.81m22.99-23.537c-5.032 0-9.111 4.219-9.111 9.424 0 5.204 4.08 9.423 9.112 9.423s9.112-4.22 9.112-9.423c0-5.205-4.08-9.424-9.112-9.424m11.487 23.004a2.49 2.49 0 0 1-2.485-2.494v-1.57c-2.428 2.838-5.926 4.62-9.814 4.62-7.329 0-13.27-6.33-13.27-14.136 0-7.808 5.941-14.136 13.27-14.136 3.888 0 7.386 1.78 9.814 4.619v-1.57c0-1.354 1.127-2.495 2.485-2.495a2.49 2.49 0 0 1 2.485 2.495v22.173c0 1.354-1.128 2.494-2.485 2.494" mask="url(#b)"/>
        </g>
        <path fill="#44525D" d="M19.737 30.997H2.417A2.421 2.421 0 0 1 0 28.572a2.421 2.421 0 0 1 2.417-2.426h17.32a2.421 2.421 0 0 1 2.417 2.426 2.421 2.421 0 0 1-2.417 2.425M77.772 7.77a2.905 2.905 0 0 1-2.9-2.91 2.904 2.904 0 0 1 2.9-2.91c1.601 0 2.9 1.302 2.9 2.91a2.905 2.905 0 0 1-2.9 2.91"/>
    </g>
</svg>
