<svg xmlns="http://www.w3.org/2000/svg" xmlns:xlink="http://www.w3.org/1999/xlink" width="110" height="26" viewBox="0 0 110 26">
    <defs>
        <path id="a" d="M.022.054h105.961v25.89H.022z"/>
    </defs>
    <g fill="none" fill-rule="evenodd">
        <g transform="translate(3.25 .001)">
            <mask id="b" fill="#fff">
                <use xlink:href="#a"/>
            </mask>
            <path fill="#F9A31C" d="M47.304 7.91c.892 0 1.615.726 1.615 1.621V23.95c0 .896-.723 1.622-1.615 1.622a1.618 1.618 0 0 1-1.615-1.622V9.531c0-.885.738-1.621 1.615-1.621M14.865 25.93h-.05v-.01H5.781c-.868 0-1.571-.707-1.571-1.578 0-.87.703-1.577 1.57-1.577h9.033c.099 0 .195.01.288.028 5.005-.129 9.024-4.32 9.024-9.473 0-5.234-4.146-9.477-9.261-9.477-4.866 0-8.853 3.84-9.23 8.72a1.574 1.574 0 0 1-1.554 1.793H1.592c-.868 0-1.571-.707-1.571-1.577 0-.871.703-1.577 1.57-1.577h.888C3.483 5.245 8.645.708 14.865.708c6.939 0 12.564 5.647 12.564 12.612s-5.625 12.61-12.564 12.61M41.84 3.724c-1.79-.632-3.419-.566-4.467.18-.706.501-1.079 1.272-1.079 2.23v1.98h3.438c.843 0 1.526.686 1.526 1.531 0 .846-.683 1.532-1.526 1.532h-3.438v12.773c0 .896-.723 1.622-1.615 1.622a1.618 1.618 0 0 1-1.615-1.622V11.176H31.47a1.528 1.528 0 0 1-1.525-1.532c0-.845.683-1.531 1.525-1.531h1.593v-1.98c0-1.001.214-1.935.636-2.777a5.678 5.678 0 0 1 1.805-2.1C37.42-.105 40.12-.321 42.911.664a1.623 1.623 0 0 1 .989 2.067 1.614 1.614 0 0 1-2.06.992m26.909 21.848a1.618 1.618 0 0 1-1.616-1.622v-7.766c0-3.074-2.41-5.566-5.382-5.566-2.972 0-5.382 2.492-5.382 5.566v7.766c0 .896-.723 1.622-1.615 1.622a1.618 1.618 0 0 1-1.616-1.622V9.536c0-.885.74-1.621 1.616-1.621.892 0 1.615.726 1.615 1.621v1.041a7.8 7.8 0 0 1 6.155-3.023c4.312-.007 7.84 3.595 7.84 7.923v8.472c0 .896-.723 1.622-1.615 1.622m13.208.36c-1.331 0-2.55-.356-3.537-1.057-1.372-.976-2.16-2.546-2.16-4.307v-9.41H74.77a1.529 1.529 0 0 1-1.526-1.53c0-.846.684-1.532 1.526-1.532h1.492V4.13c0-.895.723-1.621 1.615-1.621s1.616.726 1.616 1.621v3.964h3.61c.842 0 1.525.686 1.525 1.531 0 .846-.683 1.532-1.525 1.532h-3.61v9.41c0 .715.275 1.29.796 1.66.81.576 2.091.619 3.514.117a1.613 1.613 0 0 1 2.06.992 1.623 1.623 0 0 1-.989 2.067c-.998.352-1.985.527-2.916.527M96.9 10.63c-3.27 0-5.923 2.743-5.923 6.126 0 3.382 2.652 6.125 5.923 6.125s5.923-2.743 5.923-6.125c0-3.383-2.652-6.126-5.923-6.126m7.467 14.953a1.618 1.618 0 0 1-1.616-1.621v-1.02c-1.577 1.844-3.85 3.002-6.378 3.002-4.764 0-8.626-4.114-8.626-9.188 0-5.075 3.862-9.189 8.626-9.189 2.527 0 4.8 1.158 6.378 3.003V9.55c0-.88.733-1.622 1.616-1.622.892 0 1.615.725 1.615 1.621v14.413c0 .88-.733 1.621-1.615 1.621" mask="url(#b)"/>
        </g>
        <path fill="#FFF" d="M12.83 20.148H1.57c-.867 0-1.57-.706-1.57-1.577 0-.87.703-1.576 1.57-1.576h11.26c.867 0 1.57.706 1.57 1.576 0 .871-.703 1.577-1.57 1.577M50.552 5.05a1.888 1.888 0 0 1-1.885-1.891c0-1.045.844-1.892 1.885-1.892 1.04 0 1.885.847 1.885 1.892a1.888 1.888 0 0 1-1.885 1.891"/>
    </g>
</svg>
