<svg xmlns="http://www.w3.org/2000/svg" width="18" height="20" viewBox="0 0 18 20">
    <g fill="#FFF" fill-rule="nonzero">
        <path d="M16.848 15.734a3.541 3.541 0 0 0-2.378-2.783l-2.776-.926v-.412h-.645v.53c-.18.198-.814.76-2.259.76-1.444 0-2.079-.562-2.258-.76v-.53h-.645v.412l-2.775.926a3.541 3.541 0 0 0-2.378 2.783L.022 20h17.536l-.71-4.266zM.784 19.354l.104-.622L3.032 19c.022.136.05.253.081.355H.784zm2.203-1.01l-1.993-.248.376-2.256a2.897 2.897 0 0 1 1.946-2.277l.022-.008.282 2.82c-.17.282-.619 1.11-.633 1.97zm10.79 1.01H3.804c-.07-.14-.175-.435-.175-.967 0-.855.585-1.748.591-1.757l.064-.096-.319-3.188 2.144-.714c.318.32 1.121.916 2.681.916s2.364-.597 2.682-.916l2.143.714-.318 3.189.063.096c.007.008.592.896.592 1.756 0 .532-.105.828-.175.968zm.466-5.799l.022.008a2.897 2.897 0 0 1 1.946 2.277l.376 2.256-1.993.249c-.014-.86-.462-1.688-.633-1.97l.282-2.82zm.225 5.8c.032-.102.059-.22.081-.355l2.144-.268.104.623h-2.329z"/>
        <path d="M4.74 8.692c.164.566.468 1.085.896 1.513l1.258 1.258c.305.305.71.472 1.14.472h1.512c.431 0 .836-.167 1.14-.472l1.259-1.258c.428-.428.732-.948.896-1.513a1.61 1.61 0 0 0 1.433-1.595c0-.509-.243-.986-.645-1.289V3.004A3.008 3.008 0 0 0 10.625 0h-3.67a3.008 3.008 0 0 0-3.003 3.004v2.804c-.402.303-.645.78-.645 1.289A1.61 1.61 0 0 0 4.74 8.692zm7.599-.996c0 .776-.302 1.505-.85 2.053l-1.258 1.258a.962.962 0 0 1-.685.283H8.035a.962.962 0 0 1-.685-.283L6.092 9.75a2.885 2.885 0 0 1-.85-2.053v-1.01c.197.051.41.088.645.088.486 0 .824-.139 1.182-.285.43-.177.876-.36 1.721-.36.846 0 1.291.183 1.722.36.358.146.696.285 1.182.285.234 0 .448-.037.645-.089v1.011zm-.645-1.567c-.359 0-.614-.105-.937-.237-.443-.182-.994-.408-1.967-.408-.972 0-1.523.226-1.966.408-.323.132-.578.237-.937.237-.527 0-.948-.228-1.182-.39.359-.47 1.465-1.545 4.085-1.545 2.624 0 3.73 1.078 4.087 1.545-.232.163-.65.39-1.183.39zm1.935.968a.966.966 0 0 1-.66.913c.009-.104.015-.208.015-.314V6.43c.08-.044.15-.087.214-.13a.967.967 0 0 1 .431.798zM4.597 3.004c0-1.3 1.058-2.359 2.359-2.359h3.669a2.361 2.361 0 0 1 2.359 2.359v1.908c-.66-.608-1.93-1.364-4.194-1.364-2.262 0-3.533.756-4.193 1.364V3.004zm-.214 3.295c.063.043.134.086.214.13v1.267c0 .105.006.21.015.314a.966.966 0 0 1-.66-.913c0-.322.166-.619.43-.798zM11.801 15.894a.963.963 0 0 1-.963.88H6.743a.963.963 0 0 1-.964-.88l-.216-2.375-.642.059.216 2.375a1.605 1.605 0 0 0 1.606 1.466h4.095c.84 0 1.53-.63 1.606-1.466l.216-2.375-.643-.059-.216 2.375z"/>
    </g>
</svg>
