<svg xmlns="http://www.w3.org/2000/svg" width="20" height="20" viewBox="0 0 20 20">
    <path fill="#FFF" fill-rule="nonzero" d="M12.85 13.316v-.348c.099-.08.193-.167.284-.258a5.17 5.17 0 0 0 1.309-2.882c.653-.1 1.242-.45 1.641-.976.549-.775.598-1.891.14-3.29a.378.378 0 0 0-.15-.197l-.209-.14A5.129 5.129 0 0 0 14.64 1.77C13.622.625 12.06.047 9.99.04c-2.064 0-3.63.586-4.648 1.717A5.129 5.129 0 0 0 4.117 5.21l-.208.14a.378.378 0 0 0-.152.196c-.457 1.407-.408 2.516.14 3.291.398.53.987.884 1.642.987A5.174 5.174 0 0 0 6.85 12.71c.09.091.185.177.284.258v.348c-1.449.28-7.232 1.637-7.134 5.496 0 .209.17.378.378.378h19.227c.209 0 .378-.17.378-.378.099-3.859-5.685-5.216-7.134-5.496zM5.312 8.98a1.642 1.642 0 0 1-.802-.586l.019.003c-.378-.552-.412-1.388-.076-2.492l.276-.186a.378.378 0 0 0 .167-.351 4.47 4.47 0 0 1 1.029-3.113C6.779 1.287 8.153.803 9.99.796c1.838-.008 3.211.491 4.081 1.46a4.47 4.47 0 0 1 1.029 3.113.378.378 0 0 0 .166.351l.277.186c.336 1.1.313 1.94-.076 2.492a1.65 1.65 0 0 1-.806.587c.456-.52.68-1.203.617-1.892a1.77 1.77 0 0 0-.61-1.059c-.162-3.782-2.813-4.206-3.956-4.206-.242 0-.483.017-.722.053a4.761 4.761 0 0 0-.723-.053c-1.134 0-3.782.416-3.956 4.206a1.77 1.77 0 0 0-.617 1.056c-.063.688.16 1.372.617 1.89zm8.605-3.102a7.792 7.792 0 0 1-4.52-1.135.378.378 0 0 0-.492.05c-.756.813-2.137 1.002-2.803 1.044.205-2.675 1.824-3.257 3.185-3.257.217-.002.433.016.647.053.05.01.101.01.151 0 .214-.037.43-.055.647-.053 1.35 0 2.977.598 3.166 3.294l.02.004zM6.235 9.053l.015.004a.378.378 0 0 0-.095-.254c-.518-.594-.756-1.135-.692-1.581.031-.249.154-.477.344-.64.5 0 2.27-.094 3.405-1.073a8.53 8.53 0 0 0 4.198 1.134c.254 0 .51 0 .78-.041a.999.999 0 0 1 .34.62c.064.439-.174.987-.692 1.581a.378.378 0 0 0-.095.254v.196l-2.201 1.18a1.09 1.09 0 1 0 .34.79 1.022 1.022 0 0 0 0-.101l1.736-.93a4.161 4.161 0 0 1-1.013 1.996 3.37 3.37 0 0 1-2.508.939h-.19a3.378 3.378 0 0 1-2.503-.935c-1.196-1.191-1.17-3.12-1.17-3.14zm4.89 2.17a.337.337 0 1 1-.673 0 .337.337 0 0 1 .674 0zm-1.512 7.188H.769c.299-2.841 4.917-4.029 6.362-4.335v.677c0 .859 1.044 1.513 2.482 1.623v2.035zm-1.725-3.658v-1.305a4.573 4.573 0 0 0 2.008.424h.19a4.573 4.573 0 0 0 2.008-.424v1.305c0 .36-.82.878-2.103.878-1.282 0-2.103-.519-2.103-.878zm2.481 3.669v-2.05c1.437-.098 2.481-.757 2.481-1.623v-.662c1.457.303 6.052 1.49 6.363 4.335h-8.844z"/>
</svg>
