<svg xmlns="http://www.w3.org/2000/svg" width="16" height="20" viewBox="0 0 16 20">
    <g fill="#FFF" fill-rule="nonzero">
        <path d="M4.727 16.442H.39a.316.316 0 0 1-.312-.312V.312C.078.13.234 0 .39 0h11.792c.182 0 .312.156.312.312v7.974a.316.316 0 0 1-.312.311.335.335 0 0 1-.312-.311V.623H.727v15.17h4.026c.182 0 .312.155.312.31 0 .157-.156.339-.338.339z"/>
        <path d="M10.831 19.766c-2.857 0-5.195-2.337-5.195-5.195 0-2.857 2.338-5.194 5.195-5.194s5.195 2.337 5.195 5.194a5.193 5.193 0 0 1-5.195 5.195zm0-9.74c-2.493 0-4.545 2.052-4.545 4.545a4.55 4.55 0 0 0 4.545 4.546 4.534 4.534 0 0 0 4.546-4.546 4.534 4.534 0 0 0-4.546-4.545z"/>
        <path d="M14.078 14.883H10.83a.316.316 0 0 1-.312-.312v-3.324c0-.182.156-.312.312-.312s.312.156.312.312v2.987h2.909c.182 0 .312.156.312.311 0 .156-.104.338-.286.338zM9.662 2.753H2.727a.316.316 0 0 1-.311-.311c0-.156.155-.312.311-.312h6.935c.182 0 .312.156.312.312 0 .155-.13.311-.312.311zM9.662 4.623H2.727a.316.316 0 0 1-.311-.311c0-.156.155-.312.311-.312h6.935c.182 0 .312.156.312.312s-.13.311-.312.311zM9.662 6.52H2.727a.316.316 0 0 1-.311-.312c0-.156.155-.312.311-.312h6.935c.182 0 .312.156.312.312s-.13.311-.312.311zM9.143 8.39H2.727a.316.316 0 0 1-.311-.312c0-.156.155-.312.311-.312h6.416c.182 0 .312.156.312.312s-.13.312-.312.312zM5.766 10.286H2.727a.316.316 0 0 1-.311-.312c0-.156.155-.312.311-.312h3.04c.181 0 .31.156.31.312s-.129.312-.31.312zM4.416 12.156H2.727a.316.316 0 0 1-.311-.312c0-.156.155-.312.311-.312h1.689c.181 0 .311.156.311.312s-.13.312-.311.312zM3.896 14.052H2.727a.316.316 0 0 1-.311-.312c0-.156.155-.311.311-.311h1.17c.18 0 .31.155.31.311s-.13.312-.31.312z"/>
    </g>
</svg>
