<svg xmlns="http://www.w3.org/2000/svg" width="18" height="18" viewBox="0 0 18 18">
    <path fill="#FFF" fill-rule="nonzero" d="M1.224 11.12a4.01 4.01 0 0 0-.005 5.655 4.01 4.01 0 0 0 5.662 0l3.532-3.531a4.007 4.007 0 0 0 .218-5.43.792.792 0 0 0-1.064-.089.792.792 0 0 0-.088 1.065c.852.99.821 2.45-.125 3.395l-3.532 3.532c-.99.99-2.555.99-3.545 0a2.486 2.486 0 0 1 .006-3.54L5.64 8.822c.288-.276.288-.79.012-1.065-.282-.282-.795-.282-1.071.006L1.224 11.12zm6.363-6.364c-1.49 1.49-1.572 3.865-.218 5.43.25.301.764.339 1.058.082a.77.77 0 0 0 .081-1.058 2.484 2.484 0 0 1 .138-3.395l3.532-3.532c.99-.99 2.549-.983 3.532 0 .99.99.997 2.55.007 3.54L12.36 9.178c-.288.276-.288.79-.012 1.065.282.282.795.282 1.071-.006l3.357-3.357a4.01 4.01 0 0 0-.001-5.662 4.01 4.01 0 0 0-5.656.005L7.587 4.756z"/>
</svg>
