<svg xmlns="http://www.w3.org/2000/svg" width="22" height="22" viewBox="0 0 22 22">
    <path fill="#1B1B1B" fill-rule="evenodd" stroke="#1B1B1B" stroke-width=".1" d="M20.004 3.84c0-.334-.13-.648-.365-.885l-.584-.587a1.232 1.232 0 0 0-.881-.367c-.332 0-.645.13-.88.367l-.529.531 2.346 2.357.528-.531c.235-.236.365-.551.365-.885zm-1.597 2.124l-2.346-2.357-7.273 7.309 2.346 2.358 7.273-7.31zm-8.213 7.781L8.32 11.861l-.718 2.606 2.592-.722zM21 3.84c0 .602-.233 1.167-.656 1.593l-8.886 8.932a.5.5 0 0 1-.22.128L7.02 15.668a.497.497 0 0 1-.485-.129.502.502 0 0 1-.128-.488l1.169-4.24a.498.498 0 0 1 .127-.22l8.886-8.931c.424-.426.987-.66 1.585-.66.599 0 1.162.234 1.585.66l.585.587c.423.426.656.991.656 1.593zm-1.043 10.212v4.445A2.5 2.5 0 0 1 17.466 21H3.491A2.5 2.5 0 0 1 1 18.497V5.451a2.5 2.5 0 0 1 2.491-2.503h4.422a.5.5 0 0 1 .498.5.5.5 0 0 1-.498.501H3.491a1.5 1.5 0 0 0-1.495 1.502v13.046a1.5 1.5 0 0 0 1.495 1.502h13.975a1.5 1.5 0 0 0 1.494-1.502v-4.445a.5.5 0 1 1 .997 0z"/>
</svg>
