<svg xmlns="http://www.w3.org/2000/svg" width="20" height="19" viewBox="0 0 20 19">
    <g fill="#FFF" fill-rule="nonzero">
        <path d="M1.456 11.036l-.707-.708.708-.707.706.708zM6.588 16.167l.707-.707.707.707-.707.707z"/>
        <path d="M7.988 17.569l-.707-.707.707-.707.707.707zM13.374 2.97l-.016.016a1.65 1.65 0 1 0 2.333 0 1.638 1.638 0 0 0-2.317-.016zm1.85 1.882a.99.99 0 1 1-1.4-1.4.99.99 0 0 1 1.4 1.4zM11.953 6.137l-.49.49a2.432 2.432 0 0 0-1.098-.426l-.045-.006-.043.006a2.152 2.152 0 0 0-1.832 1.401 1.968 1.968 0 0 0 .476 2.034c.357.354.48.88.317 1.356-.199.531-.685.902-1.25.953a1.477 1.477 0 0 1-1.25-.953 1.313 1.313 0 0 1 .318-1.356l-.466-.467a1.97 1.97 0 0 0-.214 2.546l-.488.487.467.466.49-.489c.326.23.703.376 1.099.426l.044.006.044-.006a2.152 2.152 0 0 0 1.831-1.402 1.97 1.97 0 0 0-.475-2.034 1.313 1.313 0 0 1-.318-1.356c.2-.53.685-.9 1.25-.952.565.051 1.051.421 1.25.952.163.476.04 1.002-.316 1.356l.466.467c.685-.682.775-1.76.213-2.546l.487-.487-.467-.466zM1.922 11.502l.708-.707.707.707-.707.707zM2.855 12.434l.707-.707.707.707-.707.707z"/>
        <path d="M4.255 13.834l-.707-.707.707-.707.707.707zM5.188 14.768l-.708-.708.708-.707.707.707zM6.122 15.7l-.707-.707.707-.707.707.707z"/>
        <path d="M19.958 8.375l-.402-5.21a.99.99 0 0 0-.89-.91l-.668-.065-.065-.677a.99.99 0 0 0-.89-.89l-6.38-.616a.987.987 0 0 0-.796.285L.29 9.869a.99.99 0 0 0 0 1.4l6.998 6.998a.99.99 0 0 0 1.4 0l.233-.234.233.234a.99.99 0 0 0 1.4 0L19.67 9.15a.99.99 0 0 0 .287-.775zM8.22 17.8a.33.33 0 0 1-.466 0L.756 10.802a.33.33 0 0 1 0-.467L10.335.758a.327.327 0 0 1 .23-.097h.034l6.38.621a.33.33 0 0 1 .297.297l.618 6.381a.33.33 0 0 1-.095.264L8.22 17.8zm10.983-9.116L10.087 17.8a.33.33 0 0 1-.466 0l-.233-.233 8.877-8.878c.21-.208.314-.5.285-.795l-.487-5.034.539.052a.33.33 0 0 1 .296.304l.401 5.21a.33.33 0 0 1-.095.258z"/>
    </g>
</svg>
