<svg xmlns="http://www.w3.org/2000/svg" width="20" height="20" viewBox="0 0 20 20">
    <g fill="#FFF" fill-rule="nonzero">
        <path d="M19.548 1.358a.294.294 0 0 0-.2-.104l-4.343-.37-.08-.627a.294.294 0 0 0-.327-.255l-4.03.507a.292.292 0 0 0-.05-.009L4.98.027a.297.297 0 0 0-.318.268l-.083.967-4.29.54a.297.297 0 0 0-.255.328l2.19 17.419c.01.08-.007.156.025.233.046.107.154.18.271.18h14.421a.294.294 0 0 0 .294-.295v-.383l.57.049a.297.297 0 0 0 .317-.268l1.494-17.493a.294.294 0 0 0-.068-.214zM2.226 14.855L.654 2.348l1.572-.198v12.705zM5.222.638l2.573.22-2.62.329.047-.55zM14.38.622l.15 1.195H4.88l9.5-1.195zm3.183 18.1l-.327-.028v-8.589a.294.294 0 1 0-.588 0v9.268H2.814V2.405h13.834v6.328a.294.294 0 1 0 .587 0V2.111a.294.294 0 0 0-.294-.294h-1.82l-.041-.337 3.926.335-1.444 16.907z"/>
        <path d="M6.802 14a.294.294 0 1 1 0 .588H4.294a.294.294 0 1 1 0-.588h2.508zm7.762 0a.294.294 0 1 1 0 .588H8.056a.294.294 0 1 1 0-.588h6.508zM8.37 15.568a.294.294 0 1 1 0 .587H4.294a.294.294 0 1 1 0-.587H8.37zm6.194 0a.294.294 0 1 1 0 .587h-4.94a.294.294 0 1 1 0-.587h4.94zm-9.016 1.567a.294.294 0 1 1 0 .588H4.294a.294.294 0 1 1 0-.588h1.254zm6.016 0a.294.294 0 1 1 0 .588H6.802a.294.294 0 1 1 0-.588h4.762zM6.802 9a.294.294 0 1 1 0 .588H4.294a.294.294 0 1 1 0-.588h2.508zm7.762 0a.294.294 0 1 1 0 .588H8.056a.294.294 0 1 1 0-.588h6.508zM8.37 10.568a.294.294 0 1 1 0 .587H4.294a.294.294 0 1 1 0-.587H8.37zm6.194 0a.294.294 0 1 1 0 .587h-4.94a.294.294 0 1 1 0-.587h4.94zm-9.016 1.567a.294.294 0 1 1 0 .588H4.294a.294.294 0 1 1 0-.588h1.254zm6.016 0a.294.294 0 1 1 0 .588H6.802a.294.294 0 1 1 0-.588h4.762zM6.802 4.277a.294.294 0 1 1 0 .588H4.294a.294.294 0 1 1 0-.588h2.508zm7.762 0a.294.294 0 1 1 0 .588H8.056a.294.294 0 1 1 0-.588h6.508zM8.37 5.845a.294.294 0 1 1 0 .587H4.294a.294.294 0 1 1 0-.587H8.37zm6.194 0a.294.294 0 1 1 0 .587h-4.94a.294.294 0 1 1 0-.587h4.94zM5.548 7.412a.294.294 0 1 1 0 .588H4.294a.294.294 0 1 1 0-.588h1.254zm6.016 0a.294.294 0 1 1 0 .588H6.802a.294.294 0 1 1 0-.588h4.762z"/>
    </g>
</svg>
