<svg xmlns="http://www.w3.org/2000/svg" width="21" height="22" viewBox="0 0 21 22">
    <path fill="#FFF" fill-rule="nonzero" stroke="#FFF" stroke-width=".3" d="M10.875 1.082a.235.235 0 0 0-.044.007.235.235 0 0 0-.074.037L1.11 7.243a.235.235 0 0 0-.11.199v13.176c0 .13.105.236.235.236H20.53c.13 0 .236-.106.236-.236V7.442a.235.235 0 0 0-.11-.199l-9.648-6.117a.235.235 0 0 0-.132-.044zm.007.522l9.412 5.963v12.816H16.06v-7.059a.235.235 0 0 0-.236-.235H5.941a.235.235 0 0 0-.235.235v7.059H1.47V7.567l9.411-5.963zM9 9.089a.235.235 0 1 0 0 .47h3.765a.235.235 0 1 0 0-.47H9zm-2.824 4.47h9.412v2.118H6.176V13.56zm0 2.589h9.412v1.882H6.176v-1.882zm0 2.353h9.412v1.882H6.176v-1.882z"/>
</svg>
