<?xml version="1.0" encoding="utf-8"?>
<!-- Svg Vector Icons : http://www.onlinewebfonts.com/icon -->
<!DOCTYPE svg PUBLIC "-//W3C//DTD SVG 1.1//EN" "http://www.w3.org/Graphics/SVG/1.1/DTD/svg11.dtd">
<svg version="1.1" xmlns="http://www.w3.org/2000/svg" xmlns:xlink="http://www.w3.org/1999/xlink" x="0px" y="0px" viewBox="0 0 1000 1000" enable-background="new 0 0 1000 1000" xml:space="preserve">
<metadata> Svg Vector Icons : http://www.onlinewebfonts.com/icon </metadata>
<g><path d="M990,392.8c0,46-25.3,86-62.9,107c0.9,2.5,1.6,5.1,1.6,7.9v413.5c0,12.7-10.3,23-23,23h-15.3H752.6h-15.3H262.7h-15.4H109.5H94.2c-12.7,0-23-10.3-23-23V507.7c0-2.8,0.7-5.4,1.6-7.9c-37.5-21-62.8-61-62.8-107h7.5c-4.2-5.5-6.3-12.8-4.4-20.2L86.6,83v-4c0-12.7,10.3-23,23-23h781c12.7,0,23,10.3,23,23V83L987,372.6c1.9,7.4-0.2,14.7-4.4,20.2L990,392.8L990,392.8z M714.4,882.8V668.4H285.6v214.4H714.4z M132.5,882.8h91.9V645.4v-15.3c0-12.7,10.3-23,23-23h15.3h474.7h15.3c12.7,0,23,10.3,23,23v15.3v237.4h91.9V515.3c-36.7,0-69.4-16.2-91.9-41.7c-22.4,25.5-55.3,41.7-91.9,41.7c-36.7,0-69.4-16.2-91.9-41.7c-22.4,25.5-55.3,41.7-91.9,41.7c-36.7,0-69.4-16.2-91.9-41.7c-22.5,25.5-55.3,41.7-91.9,41.7c-36.7,0-69.4-16.2-91.9-41.7c-22.5,25.5-55.3,41.7-91.9,41.7V882.8z M930.6,388.5l-68.8-271.3H138.1L69.3,388.5c-0.4,1.6-1.3,2.9-2,4.3h3.9c0,33.8,27.4,61.3,61.3,61.3c33.8,0,61.3-27.4,61.3-61.3c0-16.9,13.7-30.6,30.6-30.6s30.6,13.7,30.6,30.6c0,33.8,27.4,61.3,61.3,61.3s61.3-27.4,61.3-61.3c0-16.9,13.7-30.6,30.6-30.6c16.9,0,30.6,13.7,30.6,30.6c0,33.8,27.4,61.3,61.3,61.3c33.8,0,61.3-27.4,61.3-61.3c0-16.9,13.7-30.6,30.6-30.6c16.9,0,30.6,13.7,30.6,30.6c0,33.8,27.4,61.3,61.3,61.3s61.3-27.4,61.3-61.3c0-16.9,13.7-30.6,30.6-30.6c16.9,0,30.6,13.7,30.6,30.6c0,33.8,27.4,61.3,61.3,61.3c33.8,0,61.3-27.4,61.3-61.3h3.9C932,391.4,931.1,390.1,930.6,388.5z"/></g>
</svg>